<?xml version="1.0" standalone="no"?>
<!DOCTYPE svg PUBLIC "-//W3C//DTD SVG 20010904//EN"
 "http://www.w3.org/TR/2001/REC-SVG-20010904/DTD/svg10.dtd">
<svg version="1.0" xmlns="http://www.w3.org/2000/svg"
 width="2500.000000pt" height="2500.000000pt" viewBox="0 0 2500.000000 2500.000000"
 preserveAspectRatio="xMidYMid meet">
<metadata>
Created by potrace 1.14, written by Peter Selinger 2001-2017
</metadata>
<g transform="translate(0.000000,2500.000000) scale(0.100000,-0.100000)"
fill="#000000" stroke="none">
<path d="M7849 23906 c-2 -2 -44 -7 -93 -10 -49 -4 -92 -9 -95 -10 -3 -2 -33
-7 -66 -11 -32 -3 -62 -8 -65 -10 -4 -2 -22 -7 -41 -10 -102 -18 -273 -70
-399 -122 -98 -40 -243 -114 -248 -125 -2 -4 -8 -8 -14 -8 -21 0 -231 -150
-319 -227 -94 -83 -176 -168 -279 -289 -204 -238 -413 -627 -542 -1004 -59
-172 -109 -358 -154 -565 -23 -104 -23 -106 -30 -150 -3 -22 -9 -58 -14 -80
-9 -45 -36 -230 -45 -315 -3 -30 -8 -71 -10 -90 -3 -19 -7 -62 -10 -95 -3 -33
-7 -80 -9 -105 -26 -256 -26 -1057 -1 -1330 2 -19 6 -75 10 -125 14 -195 18
-235 41 -420 8 -66 17 -127 19 -135 2 -8 7 -35 10 -60 3 -25 12 -81 20 -125 8
-44 16 -91 19 -105 10 -60 59 -302 76 -380 70 -314 102 -458 106 -480 2 -14
15 -72 29 -130 34 -148 63 -280 69 -316 6 -31 6 -31 -52 -42 -31 -5 -68 -13
-82 -16 -22 -5 -72 -16 -145 -30 -147 -30 -619 -150 -845 -214 -663 -190
-1230 -393 -1805 -647 -349 -153 -850 -417 -1105 -580 -313 -201 -553 -375
-729 -530 -225 -197 -400 -378 -542 -560 -61 -78 -67 -86 -142 -200 -204 -306
-318 -606 -354 -931 -10 -86 -10 -398 -1 -479 21 -181 57 -340 113 -510 119
-355 313 -689 594 -1020 93 -109 361 -381 454 -460 32 -28 82 -71 110 -97 29
-26 55 -48 58 -48 3 0 17 -10 31 -23 13 -12 78 -63 144 -112 65 -50 121 -93
124 -96 24 -28 607 -409 626 -409 3 0 20 -11 38 -25 18 -14 36 -25 40 -25 4 0
48 -24 99 -54 96 -56 169 -96 327 -179 52 -27 118 -62 145 -77 77 -42 149 -62
238 -65 278 -7 512 162 563 406 40 193 -21 383 -170 531 -41 41 -90 71 -207
131 -155 78 -206 105 -334 179 -38 22 -90 52 -115 66 -178 100 -593 378 -728
487 -9 7 -57 46 -107 86 -502 403 -839 854 -938 1254 -22 89 -28 139 -27 255
0 106 2 125 21 215 6 28 13 61 15 75 14 74 170 318 304 474 299 350 626 626
1070 906 239 151 656 369 935 490 66 28 134 58 150 65 144 65 606 231 870 313
319 99 697 198 1005 263 52 11 104 22 115 25 18 4 152 30 200 39 11 2 62 11
112 20 51 8 100 18 108 21 16 7 24 -10 49 -96 108 -387 171 -595 300 -981 115
-348 307 -896 336 -964 5 -11 56 -146 114 -300 57 -154 114 -306 126 -337 l22
-56 -57 -109 c-32 -59 -61 -112 -65 -118 -4 -5 -48 -86 -97 -180 -50 -93 -117
-219 -149 -280 -89 -167 -189 -363 -335 -655 -160 -321 -229 -464 -364 -755
-18 -38 -49 -106 -70 -150 -50 -107 -235 -524 -235 -529 0 -3 -14 -34 -30 -69
-17 -36 -30 -68 -30 -71 0 -3 -11 -29 -24 -58 -13 -29 -31 -73 -41 -98 -10
-25 -26 -63 -36 -85 -47 -108 -199 -498 -281 -720 -17 -44 -34 -89 -38 -100
-64 -164 -241 -695 -324 -970 -107 -358 -249 -898 -280 -1065 -2 -14 -16 -79
-31 -145 -15 -66 -29 -133 -31 -150 -2 -16 -11 -61 -19 -100 -29 -133 -91
-512 -111 -675 -3 -30 -8 -63 -9 -72 -2 -9 -6 -45 -10 -80 -3 -35 -8 -74 -10
-88 -2 -14 -7 -50 -9 -80 -3 -30 -8 -84 -11 -120 -18 -187 -28 -440 -28 -670
0 -201 9 -474 18 -518 1 -10 6 -57 10 -107 4 -49 8 -92 10 -95 2 -3 6 -39 10
-80 4 -41 8 -77 10 -80 3 -5 12 -56 20 -120 33 -242 149 -592 336 -1012 112
-251 255 -456 457 -656 228 -226 475 -384 772 -495 87 -32 285 -89 353 -101
15 -3 53 -10 85 -15 136 -25 268 -35 462 -35 256 0 353 9 647 59 129 22 423
93 503 123 8 3 20 6 25 7 38 9 286 98 410 147 521 206 1091 514 1671 904 367
247 682 480 742 550 80 94 121 205 127 344 15 318 -213 552 -540 554 -143 0
-265 -47 -395 -154 -37 -31 -297 -220 -360 -262 -30 -21 -102 -69 -160 -109
-162 -110 -493 -319 -506 -319 -2 0 -27 -15 -56 -33 -29 -19 -60 -37 -68 -40
-8 -4 -28 -15 -45 -25 -180 -109 -593 -307 -849 -407 -170 -66 -420 -147 -526
-169 -14 -3 -43 -10 -65 -15 -22 -5 -51 -12 -65 -14 -14 -3 -43 -8 -65 -12
-82 -15 -62 -13 -250 -34 -145 -16 -357 -3 -520 33 -375 81 -674 322 -846 683
-66 140 -143 359 -163 463 -2 14 -9 45 -15 70 -5 25 -12 61 -16 80 -3 19 -8
46 -10 60 -12 56 -14 74 -20 119 -3 25 -7 60 -10 76 -3 17 -7 46 -9 65 -35
298 -35 788 -1 1169 3 25 7 75 10 111 8 86 15 149 20 180 2 14 7 50 10 80 3
30 8 62 10 70 2 8 7 44 10 80 4 36 8 67 10 70 2 3 6 26 10 50 3 25 10 70 15
100 5 30 12 73 16 95 6 38 81 424 89 455 2 8 13 58 25 110 23 105 115 468 131
515 5 17 34 116 65 220 89 306 338 1037 394 1160 5 11 25 63 45 115 38 99 43
112 174 431 75 183 189 451 231 544 10 22 38 85 63 140 25 55 59 132 77 170
18 39 44 95 57 125 24 53 71 152 171 365 52 110 533 1077 539 1085 6 7 20 -19
74 -135 82 -179 96 -208 162 -345 152 -316 229 -474 389 -795 189 -376 263
-520 456 -885 63 -119 251 -467 279 -515 12 -22 26 -47 30 -55 34 -74 561
-990 604 -1052 11 -14 19 -28 19 -31 0 -5 138 -234 209 -347 22 -36 57 -92 76
-125 20 -33 76 -123 125 -200 48 -77 105 -167 126 -200 116 -185 670 -1012
716 -1070 5 -5 74 -102 155 -215 134 -188 507 -692 536 -722 7 -8 26 -31 43
-53 104 -135 138 -180 150 -194 280 -346 284 -350 438 -530 85 -100 129 -151
217 -253 84 -96 258 -286 437 -477 174 -186 584 -583 732 -711 14 -12 45 -40
70 -63 47 -44 167 -149 210 -184 14 -11 57 -47 95 -80 39 -32 117 -96 175
-143 58 -46 125 -100 150 -120 25 -20 61 -47 80 -60 19 -14 42 -30 50 -37 30
-24 88 -68 110 -83 12 -8 50 -35 84 -61 67 -49 448 -302 481 -319 6 -3 36 -21
68 -40 83 -50 85 -51 157 -91 148 -83 191 -106 322 -171 422 -210 901 -365
1298 -422 207 -29 599 -27 765 5 28 5 66 12 85 15 19 3 38 8 41 10 3 2 21 6
40 9 56 10 200 53 285 86 674 259 1188 862 1473 1730 23 69 43 134 45 145 2
10 13 51 25 89 11 39 22 81 25 95 2 14 11 52 19 85 18 68 63 297 72 365 3 25
8 56 10 70 5 29 15 94 20 130 2 14 6 57 10 95 4 39 9 78 11 88 2 11 6 60 9
110 4 51 8 108 10 127 23 222 23 829 0 1225 -6 103 -17 262 -20 275 -1 8 -6
58 -10 110 -3 52 -8 106 -10 120 -2 14 -7 54 -10 90 -9 97 -25 240 -30 270 -2
8 -6 40 -9 70 -8 64 -65 466 -70 495 -2 11 -7 36 -11 55 -3 19 -8 46 -10 60
-5 41 -24 153 -28 175 -3 11 -8 40 -12 65 -14 82 -16 94 -40 215 -13 66 -26
131 -28 145 -74 405 -304 1334 -463 1870 -163 547 -325 1045 -469 1440 -31 85
-58 160 -59 165 -4 12 -13 38 -31 85 -8 19 -36 96 -64 170 -138 373 -415 1066
-521 1305 -10 22 -75 170 -145 328 -69 158 -142 322 -161 365 -114 246 -262
560 -317 671 -39 78 -130 171 -211 216 -294 162 -619 68 -756 -219 -47 -100
-59 -158 -55 -276 3 -113 10 -138 73 -271 125 -263 329 -705 387 -839 49 -114
174 -399 196 -447 10 -23 19 -45 19 -48 0 -3 10 -27 21 -53 69 -151 344 -844
457 -1152 28 -74 55 -146 61 -160 32 -77 225 -641 339 -990 56 -170 165 -527
218 -715 19 -66 43 -149 53 -185 20 -69 101 -365 106 -390 2 -8 8 -33 13 -55
58 -228 138 -556 146 -598 2 -12 13 -62 25 -112 18 -82 65 -304 77 -365 2 -14
6 -36 9 -50 3 -14 9 -47 15 -75 17 -83 59 -317 66 -360 3 -22 7 -47 9 -55 2
-8 7 -37 11 -65 3 -27 8 -59 10 -70 2 -11 7 -40 10 -65 3 -25 8 -53 10 -63 1
-10 10 -70 19 -135 9 -64 18 -128 20 -142 2 -14 7 -56 11 -95 3 -38 8 -72 9
-75 2 -3 6 -39 10 -80 3 -41 8 -86 10 -100 2 -14 7 -54 10 -90 3 -36 7 -85 10
-110 35 -367 47 -825 31 -1225 -4 -99 -9 -196 -11 -215 -2 -19 -6 -71 -10
-115 -3 -44 -8 -91 -10 -105 -2 -14 -6 -52 -10 -85 -3 -33 -8 -67 -10 -75 -2
-8 -6 -40 -9 -71 -3 -31 -11 -80 -17 -110 -6 -30 -12 -65 -15 -79 -13 -73 -56
-268 -63 -290 -5 -14 -21 -68 -36 -120 -15 -52 -33 -109 -41 -127 -8 -17 -14
-35 -14 -41 0 -16 -78 -199 -127 -296 -75 -150 -168 -282 -278 -391 -173 -173
-338 -261 -585 -311 -90 -18 -325 -24 -435 -11 -331 39 -693 159 -1075 355
-171 88 -432 239 -438 254 -2 5 -7 8 -12 8 -14 0 -302 198 -465 319 -99 74
-363 282 -414 326 -14 13 -64 55 -111 95 -71 61 -192 167 -234 205 -448 408
-635 602 -1023 1065 -12 14 -66 77 -120 141 -130 153 -350 420 -448 544 -44
55 -83 102 -86 105 -6 5 -327 414 -369 470 -14 19 -34 45 -46 59 -24 30 -349
463 -379 505 -11 16 -29 40 -41 55 -11 14 -67 91 -124 171 -57 80 -108 147
-112 148 -4 2 -8 8 -8 13 0 5 -28 49 -63 97 -68 95 -152 214 -231 332 -28 41
-53 77 -56 80 -3 3 -63 92 -134 199 -273 412 -501 774 -727 1154 -89 150 -170
284 -180 299 -11 15 -19 29 -19 32 0 2 -42 78 -94 168 -51 89 -145 258 -208
373 -111 203 -139 254 -310 580 -44 83 -157 308 -252 500 -199 402 -227 460
-381 795 -82 179 -103 226 -162 360 -31 69 -66 149 -80 179 -42 94 -238 558
-326 771 -95 233 -94 198 -12 335 23 39 82 138 130 220 391 663 920 1472 1430
2185 344 481 476 658 497 663 24 7 1568 1 1733 -7 66 -2 192 -8 280 -11 88 -3
192 -8 230 -10 39 -2 135 -7 215 -10 80 -4 163 -8 185 -10 22 -1 94 -6 160
-10 66 -4 136 -8 155 -10 19 -2 87 -6 150 -10 63 -3 126 -8 140 -10 14 -2 68
-7 120 -10 91 -6 141 -10 240 -20 25 -2 79 -7 120 -10 41 -4 86 -8 100 -10 14
-2 65 -6 113 -10 48 -3 96 -8 105 -10 9 -1 53 -6 97 -10 44 -3 94 -8 110 -10
47 -6 115 -14 175 -20 30 -3 71 -7 90 -10 19 -3 53 -7 75 -9 22 -3 76 -10 120
-15 44 -6 105 -13 135 -16 30 -4 70 -9 88 -11 17 -2 49 -6 70 -9 20 -2 53 -7
72 -10 19 -3 51 -7 70 -10 71 -9 336 -45 360 -49 14 -3 60 -10 103 -16 43 -6
88 -13 100 -15 43 -7 223 -37 250 -41 54 -8 98 -16 229 -38 13 -2 41 -7 63
-11 22 -4 90 -16 150 -27 61 -11 121 -22 135 -23 14 -2 50 -9 80 -15 30 -6 66
-13 80 -16 14 -2 36 -7 50 -10 14 -3 39 -8 55 -11 17 -2 75 -13 130 -25 55
-11 108 -22 118 -24 10 -2 26 -5 35 -8 9 -3 37 -8 62 -11 24 -4 47 -8 51 -10
3 -2 21 -7 40 -10 19 -3 84 -17 144 -31 61 -14 151 -34 200 -45 50 -11 182
-43 295 -71 113 -27 212 -51 220 -53 23 -5 282 -73 385 -101 50 -14 97 -27
105 -29 162 -41 597 -174 886 -270 901 -300 1710 -659 2354 -1045 80 -48 172
-104 205 -126 33 -21 68 -43 77 -49 9 -5 59 -39 110 -74 589 -404 1019 -847
1224 -1261 58 -118 96 -222 120 -331 20 -89 26 -288 13 -382 -78 -544 -640
-1128 -1590 -1650 -73 -40 -426 -217 -433 -217 -2 0 -37 -15 -78 -34 -40 -19
-140 -62 -223 -96 -212 -86 -270 -116 -330 -174 -118 -113 -179 -255 -179
-416 0 -107 13 -167 57 -249 30 -54 158 -191 179 -191 7 0 19 -6 27 -13 48
-40 224 -86 312 -82 86 5 212 45 399 127 25 11 54 24 65 28 11 4 36 15 55 23
19 9 57 25 84 36 153 66 593 283 686 339 19 11 58 33 85 48 144 78 441 272
625 407 707 523 1152 1135 1294 1779 41 186 51 282 51 493 0 142 -4 213 -20
335 -6 41 -43 211 -56 255 -107 362 -261 666 -495 977 -40 53 -81 106 -91 118
-42 51 -57 68 -101 120 -52 61 -319 330 -397 400 -72 65 -269 228 -345 286
-36 27 -67 52 -70 55 -12 13 -332 237 -391 274 -9 5 -63 39 -119 75 -143 91
-147 94 -341 204 -96 54 -191 109 -211 122 -21 13 -43 24 -49 24 -6 0 -23 8
-37 18 -39 26 -377 194 -582 289 -269 125 -576 254 -850 358 -96 36 -188 71
-205 78 -16 6 -32 12 -35 13 -3 0 -12 4 -20 7 -64 26 -724 247 -862 288 -227
67 -589 171 -693 199 -122 32 -462 120 -485 125 -8 2 -121 29 -251 59 -129 30
-246 57 -260 60 -13 2 -64 13 -114 25 -49 11 -101 22 -115 25 -14 2 -106 21
-205 41 -99 21 -191 39 -205 41 -14 3 -47 9 -75 14 -67 14 -94 19 -135 26 -19
4 -44 8 -55 11 -11 2 -36 6 -55 9 -19 3 -42 7 -50 9 -8 2 -31 7 -50 10 -19 3
-84 14 -145 25 -60 11 -123 22 -140 24 -329 53 -348 56 -452 72 -66 9 -167 25
-193 29 -21 3 -177 25 -290 41 -19 2 -48 6 -65 9 -16 2 -52 7 -80 10 -27 3
-63 8 -80 10 -16 2 -52 7 -80 10 -27 3 -63 8 -80 10 -54 7 -119 15 -175 20
-30 3 -71 8 -90 11 -19 3 -55 8 -80 9 -25 2 -63 7 -85 9 -22 3 -67 8 -100 11
-33 3 -76 8 -95 10 -19 3 -60 7 -90 10 -30 3 -77 7 -105 10 -27 3 -77 7 -110
10 -82 7 -172 15 -220 20 -40 4 -101 9 -250 21 -44 3 -100 7 -125 9 -25 3 -85
7 -135 10 -49 3 -112 7 -140 10 -27 3 -95 7 -150 10 -55 3 -131 7 -170 10 -38
3 -119 7 -180 10 -60 3 -148 7 -195 10 -358 19 -893 34 -1418 39 -161 2 -294
5 -297 7 -2 3 11 20 28 39 18 19 75 87 127 150 52 63 99 120 105 126 5 6 28
33 50 60 86 103 453 529 490 568 11 12 51 57 90 101 38 44 84 96 102 115 17
19 41 45 51 58 11 12 62 68 113 124 52 55 105 113 119 128 341 370 990 1014
1252 1242 11 9 52 46 92 81 250 225 593 504 861 702 88 65 176 130 195 145 19
14 64 46 100 70 36 24 67 46 70 50 7 8 336 225 440 290 109 69 349 210 356
210 2 0 21 11 42 24 205 129 805 397 1032 461 8 2 54 15 102 29 82 25 279 74
323 81 11 2 43 7 70 11 28 4 55 8 61 9 47 10 152 18 274 20 354 6 613 -67 855
-240 360 -257 585 -808 642 -1575 14 -189 7 -704 -11 -895 -3 -22 -7 -74 -11
-115 -3 -41 -8 -88 -10 -105 -2 -16 -6 -55 -10 -85 -20 -177 -40 -315 -80
-560 -6 -32 -60 -326 -76 -405 -21 -109 3 -260 58 -358 10 -17 20 -34 23 -37
3 -3 17 -21 31 -40 98 -131 252 -211 405 -211 270 0 514 199 559 456 5 29 10
55 20 105 6 32 46 238 50 265 15 82 44 261 51 310 2 17 11 80 19 140 9 61 18
126 20 145 2 19 7 53 9 75 3 22 8 70 11 107 3 37 7 75 9 85 2 10 7 68 11 128
4 61 8 112 10 115 2 3 6 79 11 170 13 277 8 660 -12 870 -12 127 -15 161 -25
232 -5 43 -12 90 -14 105 -56 407 -213 883 -393 1196 -12 20 -31 53 -42 73
-131 231 -389 520 -613 687 -342 255 -677 383 -1157 444 -81 10 -523 10 -605
0 -34 -4 -83 -9 -110 -13 -331 -37 -885 -188 -1192 -325 -24 -10 -45 -19 -47
-19 -24 0 -518 -236 -681 -325 -97 -53 -257 -143 -275 -155 -8 -6 -22 -13 -30
-17 -88 -41 -649 -407 -915 -598 -90 -64 -321 -236 -410 -305 -136 -105 -117
-89 -205 -161 -41 -33 -82 -66 -90 -72 -27 -21 -125 -102 -130 -107 -3 -3 -32
-27 -65 -55 -66 -55 -366 -317 -400 -350 -11 -11 -70 -65 -130 -120 -301 -275
-720 -694 -1098 -1097 -64 -69 -125 -134 -135 -145 -18 -21 -136 -152 -186
-207 -15 -17 -76 -85 -134 -151 -58 -66 -113 -127 -121 -136 -42 -44 -160
-182 -236 -273 -22 -27 -46 -55 -53 -63 -13 -13 -94 -109 -171 -202 -20 -25
-52 -63 -71 -86 -90 -106 -238 -286 -305 -370 -21 -28 -42 -52 -45 -55 -3 -3
-79 -97 -169 -210 -89 -113 -177 -223 -194 -244 -18 -22 -41 -52 -52 -67 -11
-15 -27 -27 -35 -27 -13 1 -200 -7 -390 -17 -61 -3 -196 -11 -320 -20 -30 -2
-93 -6 -140 -9 -47 -4 -110 -8 -140 -11 -30 -3 -86 -7 -125 -10 -38 -3 -92 -7
-120 -9 -27 -3 -81 -8 -120 -11 -70 -5 -124 -11 -200 -19 -22 -3 -69 -7 -105
-11 -36 -3 -87 -8 -115 -11 -27 -4 -61 -8 -75 -9 -14 -1 -47 -5 -75 -9 -27 -3
-72 -8 -100 -11 -27 -3 -63 -7 -80 -9 -16 -2 -48 -6 -70 -9 -22 -3 -80 -11
-130 -18 -49 -7 -93 -12 -97 -11 -4 1 -31 -3 -60 -8 -29 -5 -71 -12 -93 -15
-22 -3 -87 -12 -145 -20 -58 -8 -108 -15 -111 -15 -3 0 -11 26 -18 58 -21 97
-69 295 -138 572 -36 146 -66 272 -68 280 -2 8 -11 44 -20 80 -34 132 -108
475 -120 560 -3 25 -8 52 -10 60 -6 21 -12 61 -24 155 -16 122 -20 164 -26
271 -4 55 -8 110 -10 123 -24 145 -24 1093 0 1242 2 13 6 65 10 114 4 50 9 98
10 107 2 9 6 45 10 80 3 35 8 71 11 80 3 9 6 32 8 50 3 31 15 105 22 138 1 8
12 62 24 120 12 58 24 113 26 123 2 9 6 25 8 35 2 9 18 67 36 127 239 831 655
1228 1285 1225 450 -2 964 -173 1585 -527 329 -188 860 -567 1095 -782 100
-91 237 -143 377 -142 90 0 125 5 191 27 309 102 435 445 281 761 -40 80 -102
149 -215 235 -41 31 -85 67 -99 80 -35 32 -245 199 -370 295 -623 474 -1243
823 -1775 998 -203 67 -286 90 -440 121 -114 23 -161 30 -240 39 -27 4 -63 8
-80 11 -37 6 -410 15 -416 10z m1041 -7603 c0 -4 -236 -338 -263 -373 -7 -9
-26 -36 -43 -60 -17 -25 -46 -65 -63 -90 -17 -25 -43 -63 -58 -84 -14 -22 -30
-44 -35 -50 -17 -20 -289 -417 -408 -595 -45 -68 -142 -218 -216 -333 -73
-114 -135 -204 -138 -199 -6 9 -86 231 -111 306 -7 22 -47 139 -90 260 -182
522 -332 1004 -311 1006 6 0 18 2 26 4 29 6 297 46 405 61 35 4 123 17 195 29
14 2 50 7 80 10 30 3 62 8 70 10 8 2 35 6 60 9 25 3 101 12 170 21 69 8 145
18 170 20 25 3 61 8 80 10 33 4 108 12 190 20 19 1 76 6 125 10 50 4 91 8 92
9 4 3 73 3 73 -1z"/>
<path d="M12417 13965 c-1 -2 -32 -5 -69 -9 -86 -8 -213 -37 -305 -71 -421
-151 -757 -507 -903 -953 -60 -186 -75 -286 -75 -512 0 -204 3 -227 55 -425
104 -398 373 -746 730 -942 111 -61 309 -130 425 -147 93 -14 126 -17 235 -17
528 -2 1017 314 1269 818 45 90 104 243 115 296 27 127 38 191 43 237 9 74 8
323 0 385 -35 253 -114 470 -239 664 -26 41 -48 77 -48 82 0 4 -3 9 -7 11 -5
2 -28 28 -53 58 -229 283 -561 468 -920 516 -51 6 -247 13 -253 9z"/>
</g>
</svg>
